<?xml version="1.0" encoding="utf-8"?>
<!-- Generator: Adobe Illustrator 16.0.0, SVG Export Plug-In . SVG Version: 6.00 Build 0)  -->
<!DOCTYPE svg PUBLIC "-//W3C//DTD SVG 1.1//EN" "http://www.w3.org/Graphics/SVG/1.1/DTD/svg11.dtd">
<svg version="1.1" id="Layer_1" xmlns="http://www.w3.org/2000/svg" xmlns:xlink="http://www.w3.org/1999/xlink" x="0px" y="0px"
	 width="960px" height="560px" viewBox="0 0 960 560" enable-background="new 0 0 960 560" xml:space="preserve">
<g>
	<path fill="#636362" d="M838.3,495.916l-714.796-2.037c-9.224-0.023-16.684-5.148-16.667-11.439l-0.03,9.119
		c-0.017,6.287,7.442,11.41,16.663,11.436l714.792,2.037c9.227,0.027,16.724-5.055,16.744-11.346l0.026-9.113
		C855.013,490.861,847.519,495.943,838.3,495.916z"/>
	<path fill="#3F3F3F" d="M856.578,29.378l-0.069,19.357v1.234l-0.088,26.394v1.234l-0.105,29.157v1.234l-0.053,10.65v1.234
		l-0.017,3.301v1.252l-0.016,6.707v1.252l-0.018,3.301v1.232l-0.137,42.729l-0.021,5.838l-0.05,15.481l-0.018,4.744v0.869
		l-0.019,5.82l-0.087,21.094l-0.017,5.839l-0.068,21.079l-0.02,4.951v0.889l-0.138,40.813v1.254l-0.018,3.301v1.232l-0.037,6.727
		v1.232l-0.014,3.318v1.236l-0.141,42.723l-0.016,5.838l-0.089,21.08l-0.016,5.838l-0.07,21.096l-0.019,5.818l-0.069,21.096
		l-0.016,3.352v1.236l-0.106,31.135v1.811c-0.104,4.098-1.91,7.803-4.83,10.475c-0.469,0.455-0.956,0.852-1.462,1.236
		c-0.135,0.105-0.294,0.205-0.434,0.295c-0.66,0.469-1.354,0.885-2.082,1.234c-2.364,1.182-5.074,1.84-7.942,1.826l-208.024-0.592
		h-0.019l-27.003-0.07h-0.015l-10.53-0.037l-230.945-0.656l-238.258-0.68c-4.379-0.016-8.357-1.584-11.312-4.119
		c-1.72-1.457-3.093-3.25-4.013-5.281c-0.071-0.156-0.138-0.313-0.21-0.467c-0.694-1.652-1.075-3.426-1.11-5.287v-1.648
		l0.086-21.596l0.017-5.754l0.035-10.078l0.019-5.75l0.121-40.057l0.018-5.748l0.018-3.824l0.018-5.752l1.042-312.055l0.016-5.751
		v-1.512l0.036-5.751l0.052-13.362l0.018-5.752v-1.494l0.017-5.751l0.018-5.387c0.016-2.937,0.903-5.664,2.449-7.993
		c1.651-2.468,4.032-4.466,6.865-5.751c1.719-0.783,3.631-1.303,5.628-1.495c0.61-0.07,1.218-0.087,1.826-0.087l31.172,0.087
		l17.393,0.053l38.733,0.104h0.538l38.731,0.122l8.602,0.018l31.797,0.086l6.934,0.018l31.797,0.104l8.602,0.019l38.731,0.105
		l8.93,0.016l16.352,0.053l22.38,0.069l16.351,0.052l37.514,0.105l38.731,0.103l79.737,0.226l4.326,0.017l21.097,0.07l40.138,0.104
		l3.875,0.019l172.318,0.486c6.426,0.019,11.986,3.371,14.77,8.289c0.241,0.399,0.452,0.816,0.642,1.232
		C856.125,25.296,856.578,27.294,856.578,29.378z"/>
	<polygon fill="#FFFFFF" points="125.921,447.121 127.251,51.89 837.527,53.919 836.195,449.146 	"/>
	<path fill="#DBDBDB" stroke="#B2B2B1" stroke-width="0.5534" stroke-miterlimit="10" d="M523.843,473.381
		c-0.018,3.961-3.517,7.164-7.82,7.15l-70.142-0.199c-4.31-0.012-7.788-3.232-7.771-7.197l0,0c0.01-3.967,3.51-7.17,7.816-7.154
		l70.141,0.199C520.377,466.191,523.852,469.416,523.843,473.381L523.843,473.381z"/>
	<path fill="#BAB9B9" d="M490.808,32.169c-0.017,4.247-3.765,7.677-8.376,7.664c-4.613-0.012-8.334-3.468-8.325-7.712
		c0.017-4.248,3.76-7.678,8.372-7.667C487.099,24.468,490.821,27.921,490.808,32.169z"/>
	
		<rect x="104.553" y="92.714" transform="matrix(1 0.0028 -0.0028 1 0.3928 -0.2973)" fill="#353535" width="2.603" height="93.426"/>
	<polygon fill="#353535" points="763.415,13.081 763.415,11.88 815.188,12.029 815.188,13.226 	"/>
</g>
</svg>
